HIERARCHY
ROOT mixamorig:Hips
{
	OFFSET -0.000008 104.274872 1.554316
	CHANNELS 6 Xposition Yposition Zposition Xrotation Yrotation Zrotation
	JOINT mixamorig:Spine
	{
		OFFSET -0.000005 10.181595 0.131519
		CHANNELS 6 Xposition Yposition Zposition Xrotation Yrotation Zrotation
		JOINT mixamorig:Spine1
		{
			OFFSET -0.000000 9.893959 -1.470707
			CHANNELS 6 Xposition Yposition Zposition Xrotation Yrotation Zrotation
			JOINT mixamorig:Spine2
			{
				OFFSET -0.000000 9.220757 -1.370641
				CHANNELS 6 Xposition Yposition Zposition Xrotation Yrotation Zrotation
				JOINT mixamorig:Neck
				{
					OFFSET 0.000001 16.740417 -2.049036
					CHANNELS 6 Xposition Yposition Zposition Xrotation Yrotation Zrotation
					JOINT mixamorig:Head
					{
						OFFSET 0.000000 9.617874 1.685006
						CHANNELS 6 Xposition Yposition Zposition Xrotation Yrotation Zrotation
						JOINT mixamorig:HeadTop_End
						{
							OFFSET 0.000002 22.037354 7.501101
							CHANNELS 6 Xposition Yposition Zposition Xrotation Yrotation Zrotation
							End Site
							{
								OFFSET 0.000168 2310.654297 -282.823242
							}
						}
					}
				}
				JOINT mixamorig:RightShoulder
				{
					OFFSET -4.569970 11.014908 -2.160885
					CHANNELS 6 Xposition Yposition Zposition Xrotation Yrotation Zrotation
					JOINT mixamorig:RightArm
					{
						OFFSET -10.592851 -0.524811 -2.232101
						CHANNELS 6 Xposition Yposition Zposition Xrotation Yrotation Zrotation
						JOINT mixamorig:RightForeArm
						{
							OFFSET -27.841511 0.000031 -0.000004
							CHANNELS 6 Xposition Yposition Zposition Xrotation Yrotation Zrotation
							JOINT mixamorig:RightHand
							{
								OFFSET -28.328831 -0.000015 0.000015
								CHANNELS 6 Xposition Yposition Zposition Xrotation Yrotation Zrotation
								JOINT mixamorig:RightHandThumb1
								{
									OFFSET -2.464806 -1.573990 2.681852
									CHANNELS 6 Xposition Yposition Zposition Xrotation Yrotation Zrotation
									JOINT mixamorig:RightHandThumb2
									{
										OFFSET -3.215179 -1.872803 1.924282
										CHANNELS 6 Xposition Yposition Zposition Xrotation Yrotation Zrotation
										JOINT mixamorig:RightHandThumb3
										{
											OFFSET -2.654831 -1.527969 1.512609
											CHANNELS 6 Xposition Yposition Zposition Xrotation Yrotation Zrotation
											JOINT mixamorig:RightHandThumb4
											{
												OFFSET -2.018814 -1.152008 1.108052
												CHANNELS 6 Xposition Yposition Zposition Xrotation Yrotation Zrotation
												End Site
												{
													OFFSET -188.809540 -114.533607 132.431396
												}
											}
										}
									}
								}
								JOINT mixamorig:RightHandIndex1
								{
									OFFSET -9.108284 -0.517868 2.259835
									CHANNELS 6 Xposition Yposition Zposition Xrotation Yrotation Zrotation
									JOINT mixamorig:RightHandIndex2
									{
										OFFSET -3.699989 0.000000 0.001215
										CHANNELS 6 Xposition Yposition Zposition Xrotation Yrotation Zrotation
										JOINT mixamorig:RightHandIndex3
										{
											OFFSET -2.850006 0.000031 -0.000522
											CHANNELS 6 Xposition Yposition Zposition Xrotation Yrotation Zrotation
											JOINT mixamorig:RightHandIndex4
											{
												OFFSET -2.772186 -0.000015 -0.000020
												CHANNELS 6 Xposition Yposition Zposition Xrotation Yrotation Zrotation
												End Site
												{
													OFFSET -277.218445 0.000000 -0.050231
												}
											}
										}
									}
								}
								JOINT mixamorig:RightHandMiddle1
								{
									OFFSET -9.532516 -0.000031 -0.000023
									CHANNELS 6 Xposition Yposition Zposition Xrotation Yrotation Zrotation
									JOINT mixamorig:RightHandMiddle2
									{
										OFFSET -3.700005 -0.000015 0.003713
										CHANNELS 6 Xposition Yposition Zposition Xrotation Yrotation Zrotation
										JOINT mixamorig:RightHandMiddle3
										{
											OFFSET -2.949974 0.000015 -0.002054
											CHANNELS 6 Xposition Yposition Zposition Xrotation Yrotation Zrotation
											JOINT mixamorig:RightHandMiddle4
											{
												OFFSET -2.946640 0.000000 -0.000156
												CHANNELS 6 Xposition Yposition Zposition Xrotation Yrotation Zrotation
												End Site
												{
													OFFSET -294.664337 0.000000 -0.113670
												}
											}
										}
									}
								}
								JOINT mixamorig:RightHandRing1
								{
									OFFSET -9.103600 -0.043076 -1.865134
									CHANNELS 6 Xposition Yposition Zposition Xrotation Yrotation Zrotation
									JOINT mixamorig:RightHandRing2
									{
										OFFSET -3.379288 0.000000 -0.001055
										CHANNELS 6 Xposition Yposition Zposition Xrotation Yrotation Zrotation
										JOINT mixamorig:RightHandRing3
										{
											OFFSET -2.889687 -0.000015 0.000379
											CHANNELS 6 Xposition Yposition Zposition Xrotation Yrotation Zrotation
											JOINT mixamorig:RightHandRing4
											{
												OFFSET -2.638809 -0.000015 0.000941
												CHANNELS 6 Xposition Yposition Zposition Xrotation Yrotation Zrotation
												End Site
												{
													OFFSET -263.880371 0.000000 0.516020
												}
											}
										}
									}
								}
								JOINT mixamorig:RightHandPinky1
								{
									OFFSET -8.076683 -0.486710 -3.806280
									CHANNELS 6 Xposition Yposition Zposition Xrotation Yrotation Zrotation
									JOINT mixamorig:RightHandPinky2
									{
										OFFSET -3.600014 -0.000015 -0.003747
										CHANNELS 6 Xposition Yposition Zposition Xrotation Yrotation Zrotation
										JOINT mixamorig:RightHandPinky3
										{
											OFFSET -2.099983 0.000000 -0.005739
											CHANNELS 6 Xposition Yposition Zposition Xrotation Yrotation Zrotation
											JOINT mixamorig:RightHandPinky4
											{
												OFFSET -2.115768 -0.000031 -0.003680
												CHANNELS 6 Xposition Yposition Zposition Xrotation Yrotation Zrotation
												End Site
												{
													OFFSET -211.577087 0.000000 -0.350686
												}
											}
										}
									}
								}
							}
						}
					}
				}
				JOINT mixamorig:LeftShoulder
				{
					OFFSET 4.570447 11.014725 -2.160855
					CHANNELS 6 Xposition Yposition Zposition Xrotation Yrotation Zrotation
					JOINT mixamorig:LeftArm
					{
						OFFSET 10.592371 -0.524597 -2.232119
						CHANNELS 6 Xposition Yposition Zposition Xrotation Yrotation Zrotation
						JOINT mixamorig:LeftForeArm
						{
							OFFSET 27.841532 -0.000031 0.000026
							CHANNELS 6 Xposition Yposition Zposition Xrotation Yrotation Zrotation
							JOINT mixamorig:LeftHand
							{
								OFFSET 28.328846 -0.000061 0.000022
								CHANNELS 6 Xposition Yposition Zposition Xrotation Yrotation Zrotation
								JOINT mixamorig:LeftHandThumb1
								{
									OFFSET 2.466141 -1.576172 2.681732
									CHANNELS 6 Xposition Yposition Zposition Xrotation Yrotation Zrotation
									JOINT mixamorig:LeftHandThumb2
									{
										OFFSET 3.217812 -1.872070 1.916482
										CHANNELS 6 Xposition Yposition Zposition Xrotation Yrotation Zrotation
										JOINT mixamorig:LeftHandThumb3
										{
											OFFSET 2.656029 -1.528778 1.514513
											CHANNELS 6 Xposition Yposition Zposition Xrotation Yrotation Zrotation
											JOINT mixamorig:LeftHandThumb4
											{
												OFFSET 2.020889 -1.154053 1.115139
												CHANNELS 6 Xposition Yposition Zposition Xrotation Yrotation Zrotation
												End Site
												{
													OFFSET 190.885437 -115.081749 130.048782
												}
											}
										}
									}
								}
								JOINT mixamorig:LeftHandIndex1
								{
									OFFSET 9.109314 -0.518021 2.259871
									CHANNELS 6 Xposition Yposition Zposition Xrotation Yrotation Zrotation
									JOINT mixamorig:LeftHandIndex2
									{
										OFFSET 3.699989 0.000000 -0.000322
										CHANNELS 6 Xposition Yposition Zposition Xrotation Yrotation Zrotation
										JOINT mixamorig:LeftHandIndex3
										{
											OFFSET 2.850006 0.000000 0.000352
											CHANNELS 6 Xposition Yposition Zposition Xrotation Yrotation Zrotation
											JOINT mixamorig:LeftHandIndex4
											{
												OFFSET 2.774864 -0.000031 -0.000027
												CHANNELS 6 Xposition Yposition Zposition Xrotation Yrotation Zrotation
												End Site
												{
													OFFSET 277.486267 0.000000 -0.009857
												}
											}
										}
									}
								}
								JOINT mixamorig:LeftHandMiddle1
								{
									OFFSET 9.533394 0.000061 0.000044
									CHANNELS 6 Xposition Yposition Zposition Xrotation Yrotation Zrotation
									JOINT mixamorig:LeftHandMiddle2
									{
										OFFSET 3.699989 -0.000015 -0.000231
										CHANNELS 6 Xposition Yposition Zposition Xrotation Yrotation Zrotation
										JOINT mixamorig:LeftHandMiddle3
										{
											OFFSET 2.949997 -0.000015 -0.000059
											CHANNELS 6 Xposition Yposition Zposition Xrotation Yrotation Zrotation
											JOINT mixamorig:LeftHandMiddle4
											{
												OFFSET 2.952896 0.000031 0.000063
												CHANNELS 6 Xposition Yposition Zposition Xrotation Yrotation Zrotation
												End Site
												{
													OFFSET 295.289337 0.000000 0.022810
												}
											}
										}
									}
								}
								JOINT mixamorig:LeftHandRing1
								{
									OFFSET 9.104523 -0.042999 -1.865074
									CHANNELS 6 Xposition Yposition Zposition Xrotation Yrotation Zrotation
									JOINT mixamorig:LeftHandRing2
									{
										OFFSET 3.150009 -0.000031 0.000043
										CHANNELS 6 Xposition Yposition Zposition Xrotation Yrotation Zrotation
										JOINT mixamorig:LeftHandRing3
										{
											OFFSET 2.949982 -0.000015 0.000040
											CHANNELS 6 Xposition Yposition Zposition Xrotation Yrotation Zrotation
											JOINT mixamorig:LeftHandRing4
											{
												OFFSET 2.644348 0.000000 0.000057
												CHANNELS 6 Xposition Yposition Zposition Xrotation Yrotation Zrotation
												End Site
												{
													OFFSET 264.434631 0.000000 0.012105
												}
											}
										}
									}
								}
								JOINT mixamorig:LeftHandPinky1
								{
									OFFSET 8.077789 -0.486847 -3.806259
									CHANNELS 6 Xposition Yposition Zposition Xrotation Yrotation Zrotation
									JOINT mixamorig:LeftHandPinky2
									{
										OFFSET 3.599953 0.000031 0.014727
										CHANNELS 6 Xposition Yposition Zposition Xrotation Yrotation Zrotation
										JOINT mixamorig:LeftHandPinky3
										{
											OFFSET 2.100021 0.000015 0.007705
											CHANNELS 6 Xposition Yposition Zposition Xrotation Yrotation Zrotation
											JOINT mixamorig:LeftHandPinky4
											{
												OFFSET 2.125504 0.000031 0.007517
												CHANNELS 6 Xposition Yposition Zposition Xrotation Yrotation Zrotation
												End Site
												{
													OFFSET 212.550781 0.000000 0.625752
												}
											}
										}
									}
								}
							}
						}
					}
				}
			}
		}
	}
	JOINT mixamorig:RightUpLeg
	{
		OFFSET -8.207787 -6.751648 -1.599560
		CHANNELS 6 Xposition Yposition Zposition Xrotation Yrotation Zrotation
		JOINT mixamorig:RightLeg
		{
			OFFSET -0.000002 -44.370117 0.345942
			CHANNELS 6 Xposition Yposition Zposition Xrotation Yrotation Zrotation
			JOINT mixamorig:RightFoot
			{
				OFFSET 0.000003 -44.423679 -3.043532
				CHANNELS 6 Xposition Yposition Zposition Xrotation Yrotation Zrotation
				JOINT mixamorig:RightToeBase
				{
					OFFSET -0.000002 -8.728671 10.710558
					CHANNELS 6 Xposition Yposition Zposition Xrotation Yrotation Zrotation
					JOINT mixamorig:RightToe_End
					{
						OFFSET -0.000001 -0.000679 9.278119
						CHANNELS 6 Xposition Yposition Zposition Xrotation Yrotation Zrotation
						End Site
						{
							OFFSET 0.000000 -0.067690 927.812134
						}
					}
				}
			}
		}
	}
	JOINT mixamorig:LeftUpLeg
	{
		OFFSET 8.207793 -6.751686 -1.599556
		CHANNELS 6 Xposition Yposition Zposition Xrotation Yrotation Zrotation
		JOINT mixamorig:LeftLeg
		{
			OFFSET -0.000004 -44.370014 0.346954
			CHANNELS 6 Xposition Yposition Zposition Xrotation Yrotation Zrotation
			JOINT mixamorig:LeftFoot
			{
				OFFSET -0.000001 -44.423672 -3.044401
				CHANNELS 6 Xposition Yposition Zposition Xrotation Yrotation Zrotation
				JOINT mixamorig:LeftToeBase
				{
					OFFSET -0.000002 -8.728669 10.710558
					CHANNELS 6 Xposition Yposition Zposition Xrotation Yrotation Zrotation
					JOINT mixamorig:LeftToe_End
					{
						OFFSET -0.000003 -0.000679 9.278133
						CHANNELS 6 Xposition Yposition Zposition Xrotation Yrotation Zrotation
						End Site
						{
							OFFSET 0.000000 -0.068021 927.813477
						}
					}
				}
			}
		}
	}
}
MOTION
Frames: 3
Frame Time: 0.033333
0.000006 104.270477 1.554256 0.000010 0.000003 -0.000113 -0.000005 10.181587 0.131522 0.000001 -0.000003 0.000084 -0.000000 9.893967 -1.470711 0.000001 0.000000 -0.000000 -0.000000 9.220802 -1.370642 0.000000 -0.000000 -0.000000 0.000001 16.740433 -2.049030 0.000000 -0.000000 -0.000000 0.000000 9.617859 1.685014 0.000000 0.000000 0.000000 0.000002 22.037384 7.501101 0.000000 -0.000000 0.000000 -4.569968 11.014880 -2.160881 0.000008 0.000001 -0.000038 -10.592871 -0.524763 -2.231915 79.258663 28.888565 -24.082743 -27.841515 0.000009 0.000560 -44.149093 107.664572 58.039136 -28.328796 0.000022 0.000033 -0.000320 -0.000042 0.000006 -2.464511 -1.573640 2.682261 124.140915 4.439118 136.752572 -3.215293 -1.872607 1.924662 152.588065 30.295529 -3.343685 -2.654949 -1.527884 1.513078 145.187883 27.365988 -36.098277 -2.018827 -1.152013 1.108061 -0.000003 -0.000003 0.000002 -9.108392 -0.517561 2.260139 99.253953 18.078174 -21.250641 -3.700077 0.000299 0.001519 96.735839 15.795484 -17.713991 -2.850089 0.000351 -0.000246 98.513642 12.629833 -14.639546 -2.772175 -0.000015 -0.000018 0.000000 0.000000 -0.000001 -9.532612 0.000257 0.000254 94.556483 18.956218 -20.652648 -3.700082 0.000313 0.003983 93.912758 14.867105 -15.801484 -2.950069 0.000331 -0.001796 98.114076 12.397809 -14.264270 -2.946623 0.000014 -0.000152 -0.000004 0.000000 0.000002 -9.103716 -0.042762 -1.864832 95.958776 20.502505 -22.647509 -3.379335 0.000321 -0.000800 94.370326 10.863968 -11.739111 -2.889763 0.000354 0.000649 101.720334 6.414071 -7.932699 -2.638817 -0.000004 0.000942 0.000001 -0.000000 0.000000 -8.076766 -0.486391 -3.805973 93.359766 20.768766 -21.829935 -3.600030 0.000280 -0.003479 95.839049 8.789954 -9.335837 -2.100000 0.000319 -0.005458 99.257416 4.500731 -5.038882 -2.115772 -0.000020 -0.003677 -0.000000 -0.000000 -0.000005 4.570446 11.014691 -2.160851 -0.000018 0.000010 -0.000021 10.592411 -0.524473 -2.232366 71.979149 -16.710655 12.177183 27.841831 0.000052 -0.000201 -69.318265 -106.841097 -85.946128 28.328840 -0.000029 0.000013 0.000022 -0.000090 -0.000000 2.466028 -1.576176 2.681909 -34.856504 158.917028 -19.414080 3.217812 -1.871737 1.916365 156.364750 -30.327430 4.686302 2.656091 -1.528636 1.514452 139.543579 -27.948847 45.729667 2.020890 -1.154086 1.115151 -0.000001 0.000006 0.000006 9.109366 -0.517878 2.259736 80.538927 -18.734189 15.899623 3.700041 0.000126 -0.000459 75.127334 -18.693611 14.443313 2.850050 0.000153 0.000211 71.251208 -15.170929 10.901546 2.774891 -0.000031 -0.000029 0.000000 0.000002 -0.000002 9.533453 0.000184 -0.000082 79.182567 -17.532891 14.528209 3.700055 0.000142 -0.000370 81.063588 -16.613003 14.229116 2.950066 0.000145 -0.000192 80.411851 -18.332282 15.535597 2.952862 -0.000016 0.000066 0.000001 0.000001 0.000001 9.104588 -0.042868 -1.865224 77.885774 -16.349827 13.245572 3.150066 0.000185 -0.000086 83.120575 -14.132399 12.545061 2.950026 0.000160 -0.000068 83.398809 -14.742345 13.151227 2.644319 0.000032 0.000052 -0.000001 -0.000001 -0.000000 8.077826 -0.486752 -3.806409 70.391998 -17.348981 12.710695 3.599991 0.000147 0.014565 72.070626 -14.081958 10.648232 2.100032 0.000160 0.007535 74.312827 -12.689324 10.005487 2.125488 -0.000017 0.007511 0.000001 0.000004 0.000000 -8.207786 -6.751667 -1.599560 -0.077001 -0.000003 0.000080 -0.000002 -44.370110 0.345938 0.153719 -0.000000 -0.000000 0.000000 -44.423679 -3.043532 -0.076700 0.000000 -0.000002 -0.000006 -8.728667 10.710559 -0.000009 -0.000000 -0.000000 -0.000001 -0.000679 9.278123 0.000000 -0.000000 -0.000000 8.207792 -6.751710 -1.599556 -0.074518 -0.000003 0.000081 -0.000002 -44.370014 0.346960 0.148822 0.000002 0.000000 -0.000001 -44.423664 -3.044403 -0.074314 0.000000 -0.000002 -0.000004 -8.728671 10.710558 0.000007 -0.000000 -0.000000 0.000000 -0.000680 9.278137 -0.000000 0.000000 -0.000001 
0.000006 104.270477 1.554256 0.000010 0.000003 -0.000113 -0.000005 10.181587 0.131522 0.000001 -0.000003 0.000084 -0.000000 9.893967 -1.470711 0.000001 0.000000 -0.000000 -0.000000 9.220802 -1.370642 0.000000 -0.000000 -0.000000 0.000001 16.740433 -2.049030 0.000000 -0.000000 -0.000000 0.000000 9.617859 1.685014 0.000000 0.000000 0.000000 0.000002 22.037384 7.501101 0.000000 -0.000000 0.000000 -4.569968 11.014880 -2.160881 0.000008 0.000001 -0.000038 -10.592865 -0.524796 -2.231859 78.860230 37.090359 -30.843656 -27.841507 0.000020 0.000559 -43.418215 104.839852 54.710184 -28.328817 0.000032 0.000023 -0.000319 -0.000043 0.000006 -2.464465 -1.573668 2.682264 124.657619 -4.127283 145.538436 -3.215271 -1.872558 1.924644 149.628558 31.247487 6.014499 -2.654967 -1.527874 1.513060 144.629652 27.942128 -29.773440 -2.018823 -1.151986 1.108070 0.000001 -0.000006 0.000004 -9.108385 -0.517540 2.260139 102.207381 14.702301 -18.226734 -3.700065 0.000311 0.001497 96.963046 11.952779 -13.461826 -2.850077 0.000375 -0.000267 95.025014 9.920119 -10.824480 -2.772156 0.000001 -0.000017 0.000000 0.000002 -0.000000 -9.532594 0.000279 0.000247 97.260842 15.040112 -17.209305 -3.700064 0.000319 0.003973 96.331328 11.642859 -12.890043 -2.950046 0.000341 -0.001803 96.903111 11.515781 -12.974172 -2.946647 0.000002 -0.000158 0.000002 0.000002 -0.000000 -9.103708 -0.042760 -1.864849 97.055629 18.055226 -20.330087 -3.379329 0.000318 -0.000788 96.636890 8.432679 -9.485480 -2.889747 0.000351 0.000685 101.944173 6.469822 -8.033038 -2.638808 -0.000014 0.000939 -0.000001 -0.000000 -0.000000 -8.076775 -0.486394 -3.805990 94.252991 20.809232 -22.208533 -3.600010 0.000285 -0.003494 94.036125 7.742247 -7.928683 -2.100008 0.000327 -0.005471 95.597138 3.955424 -4.125658 -2.115770 -0.000053 -0.003677 0.000001 -0.000001 -0.000005 4.570446 11.014691 -2.160851 -0.000018 0.000010 -0.000021 10.592420 -0.524470 -2.232383 72.174547 -21.408581 15.689566 27.841831 0.000047 -0.000184 -69.137511 -105.485858 -84.347577 28.328829 -0.000029 0.000022 0.000022 -0.000089 0.000001 2.466091 -1.576172 2.681905 -26.901540 160.237536 -37.427610 3.217828 -1.871761 1.916390 161.654732 -28.348825 15.220127 2.656111 -1.528652 1.514468 142.170592 -26.825377 52.569019 2.020894 -1.154088 1.115148 0.000005 0.000004 0.000004 9.109368 -0.517888 2.259739 79.158771 -19.978156 16.557478 3.700042 0.000126 -0.000465 76.447773 -14.222140 11.236821 2.850043 0.000173 0.000204 75.564514 -11.697436 9.079218 2.774880 -0.000046 -0.000026 -0.000000 -0.000001 -0.000000 9.533467 0.000187 -0.000085 79.846189 -18.666706 15.654288 3.700047 0.000155 -0.000369 81.585811 -12.378626 10.690550 2.950062 0.000162 -0.000215 81.049313 -12.667853 10.843198 2.952872 -0.000016 0.000066 -0.000001 0.000000 0.000000 9.104591 -0.042862 -1.865214 80.292084 -18.188077 15.379624 3.150059 0.000189 -0.000096 83.699576 -11.772757 10.553450 2.950026 0.000156 -0.000072 83.948919 -10.608057 9.549738 2.644317 0.000016 0.000058 0.000000 0.000001 0.000000 8.077832 -0.486738 -3.806369 72.570862 -19.689352 14.974940 3.600015 0.000150 0.014555 72.219948 -15.312181 11.587057 2.100029 0.000165 0.007541 75.548968 -11.706687 9.460432 2.125504 -0.000000 0.007516 -0.000000 0.000002 -0.000000 -8.207786 -6.751667 -1.599560 -0.077001 -0.000003 0.000080 -0.000002 -44.370110 0.345938 0.153719 -0.000000 -0.000000 0.000000 -44.423679 -3.043532 -0.076700 0.000000 -0.000002 -0.000006 -8.728667 10.710559 -0.000009 -0.000000 -0.000000 -0.000001 -0.000679 9.278123 0.000000 -0.000000 -0.000000 8.207792 -6.751710 -1.599556 -0.074518 -0.000003 0.000081 -0.000002 -44.370014 0.346960 0.148822 0.000002 0.000000 -0.000001 -44.423664 -3.044403 -0.074314 0.000000 -0.000002 -0.000004 -8.728671 10.710558 0.000007 -0.000000 -0.000000 0.000000 -0.000680 9.278137 -0.000000 0.000000 -0.000001 
0.000006 104.270477 1.554256 0.000010 0.000003 -0.000113 -0.000005 10.181587 0.131522 0.000001 -0.000003 0.000084 -0.000000 9.893967 -1.470711 0.000001 0.000000 -0.000000 -0.000000 9.220802 -1.370642 0.000000 -0.000000 -0.000000 0.000001 16.740433 -2.049030 0.000000 -0.000000 -0.000000 0.000000 9.617859 1.685014 0.000000 0.000000 0.000000 0.000002 22.037384 7.501101 0.000000 -0.000000 0.000000 -4.569968 11.014880 -2.160881 0.000008 0.000001 -0.000038 -10.592855 -0.524810 -2.231827 78.859185 43.181597 -36.050708 -27.841520 -0.000009 0.000560 -43.438883 103.460127 53.581321 -28.328840 0.000008 0.000025 -0.000320 -0.000045 0.000009 -2.464469 -1.573649 2.682250 123.678538 -0.265115 139.398246 -3.215287 -1.872556 1.924654 149.781527 30.825911 2.497091 -2.654954 -1.527865 1.513056 144.382932 27.989159 -29.589455 -2.018831 -1.151997 1.108082 -0.000004 -0.000003 0.000004 -9.108356 -0.517529 2.260127 101.598053 14.527742 -17.820549 -3.700068 0.000328 0.001516 96.979179 11.844585 -13.343756 -2.850079 0.000378 -0.000262 95.564763 9.859221 -10.859738 -2.772164 0.000001 -0.000021 0.000001 0.000001 0.000000 -9.532581 0.000279 0.000251 96.673555 14.538527 -16.473064 -3.700061 0.000324 0.003979 96.616994 11.616836 -12.925227 -2.950053 0.000344 -0.001814 97.673734 11.573186 -13.215192 -2.946618 0.000001 -0.000155 -0.000000 -0.000001 0.000001 -9.103696 -0.042760 -1.864859 96.350849 17.689637 -19.679039 -3.379319 0.000310 -0.000798 96.599024 8.499989 -9.554659 -2.889748 0.000364 0.000684 102.282117 6.595340 -8.237103 -2.638810 -0.000006 0.000948 -0.000002 0.000002 0.000000 -8.076746 -0.486390 -3.806002 93.553299 20.240533 -21.343083 -3.600036 0.000285 -0.003498 93.993566 7.608425 -7.780077 -2.100013 0.000315 -0.005460 95.950716 3.939504 -4.133697 -2.115789 -0.000049 -0.003680 0.000000 0.000001 -0.000001 4.570446 11.014691 -2.160851 -0.000018 0.000010 -0.000021 10.592457 -0.524464 -2.232409 72.295421 -33.571930 24.853467 27.841833 0.000015 -0.000187 -68.901739 -103.012292 -81.564213 28.328827 -0.000029 0.000019 0.000021 -0.000087 -0.000001 2.466096 -1.576160 2.681899 -27.108515 160.118581 -36.901996 3.217839 -1.871781 1.916385 161.242052 -27.873184 17.428986 2.656106 -1.528672 1.514481 140.953234 -27.232154 52.425848 2.020883 -1.154075 1.115145 0.000002 0.000003 0.000006 9.109385 -0.517884 2.259735 78.868310 -19.238616 15.859474 3.700056 0.000131 -0.000457 76.343593 -13.714558 10.814576 2.850027 0.000175 0.000215 75.812641 -11.405785 8.891724 2.774874 -0.000046 -0.000026 0.000001 0.000001 -0.000001 9.533459 0.000203 -0.000070 80.193538 -18.418773 15.539415 3.700047 0.000162 -0.000367 81.499156 -12.406623 10.698503 2.950038 0.000155 -0.000219 80.936956 -12.407280 10.598783 2.952876 -0.000013 0.000062 -0.000001 0.000000 -0.000001 9.104595 -0.042869 -1.865213 80.665374 -17.994634 15.314940 3.150027 0.000189 -0.000101 83.389718 -11.996448 10.696192 2.950021 0.000164 -0.000103 83.554196 -10.470141 9.360656 2.644317 0.000031 0.000055 -0.000001 -0.000000 0.000000 8.077845 -0.486734 -3.806381 73.319212 -19.763006 15.233934 3.600005 0.000155 0.014573 72.857498 -15.922974 12.179102 2.100018 0.000154 0.007547 76.083834 -11.735497 9.574175 2.125505 -0.000030 0.007515 0.000000 -0.000001 -0.000000 -8.207786 -6.751667 -1.599560 -0.077001 -0.000003 0.000080 -0.000002 -44.370110 0.345938 0.153719 -0.000000 -0.000000 0.000000 -44.423679 -3.043532 -0.076700 0.000000 -0.000002 -0.000006 -8.728667 10.710559 -0.000009 -0.000000 -0.000000 -0.000001 -0.000679 9.278123 0.000000 -0.000000 -0.000000 8.207792 -6.751710 -1.599556 -0.074518 -0.000003 0.000081 -0.000002 -44.370014 0.346960 0.148822 0.000002 0.000000 -0.000001 -44.423664 -3.044403 -0.074314 0.000000 -0.000002 -0.000004 -8.728671 10.710558 0.000007 -0.000000 -0.000000 0.000000 -0.000680 9.278137 -0.000000 0.000000 -0.000001 
